<svg xmlns="http://www.w3.org/2000/svg" viewBox="0 0 110.63 119.5"><g id="Layer_2" data-name="Layer 2"><g id="Layer_1-2" data-name="Layer 1"><path d="M82.94,10.54a27.3,27.3,0,0,0-11.3,2.4A27.7,27.7,0,0,0,20.5,27.7V28a19,19,0,1,0-1.49,38H82.94a27.7,27.7,0,0,0,0-55.39Zm2.71,52.23a21.26,21.26,0,1,0-18-38.48,21.26,21.26,0,0,0-39.81,10.4c0,.54,0,1.08.06,1.61a13.65,13.65,0,0,0-2.49-.22,14.2,14.2,0,0,0-6.49,26.84,16,16,0,0,1,.12-32,16.65,16.65,0,0,1,2.8.25,1.49,1.49,0,0,0,1.76-1.58c-.05-.63-.07-1.26-.07-1.87A24.7,24.7,0,0,1,69.74,15.62a1.51,1.51,0,0,0,2,.6,24.43,24.43,0,0,1,11.21-2.68,24.69,24.69,0,0,1,2.71,49.23Z"/><polygon points="65.5 70.5 43.5 70.5 42.5 98.5 51.5 98.5 49.5 119.5 68.5 87.5 59.5 87.5 65.5 70.5"/></g></g></svg>